<svg xmlns="http://www.w3.org/2000/svg" width="364.008" height="53.38"><path fill="#2661b9" d="M0 2.02h45v45H0z"/><path d="M62.14 5.92l-.16.86a1.379 1.379 0 00-1.54-1.08 2.423 2.423 0 00-2.26 1.48 8.723 8.723 0 00-.92 3.98c0 1.82.74 2.84 2.04 2.84.88 0 1.4-.38 2-1.44A1.556 1.556 0 0063.02 14C65.34 14 67 11.68 67 8.44c0-4.18-2.6-6.98-6.5-6.98a6.184 6.184 0 00-5.1 2.4 11.379 11.379 0 00-1.84 6.72c0 2.6.66 4.7 1.86 5.92a7.6 7.6 0 005.24 1.84 8.517 8.517 0 004.26-1.1l-.56-1.42a7.79 7.79 0 01-3.66.88c-3.5 0-5.06-1.88-5.06-6.12 0-4.68 1.84-7.48 4.94-7.48C63.26 3.1 65 5.22 65 8.48a7.067 7.067 0 01-.62 3.12 1.456 1.456 0 01-1.14.76c-.3 0-.46-.28-.46-.78a5.8 5.8 0 01.12-1.1l.7-4.56zm-1.46 1.4c.4 0 .58.4.58 1.28 0 1.68-.84 3.66-1.54 3.66-.32 0-.44-.34-.44-1.2 0-2.04.62-3.74 1.4-3.74zm10.8 7.48a1.181 1.181 0 01-.35.87 1.181 1.181 0 01-.87.35 1.125 1.125 0 01-.84-.35 1.2 1.2 0 01-.34-.87V2.44a1.181 1.181 0 01.35-.87 1.181 1.181 0 01.87-.35 1.116 1.116 0 01.85.35 1.219 1.219 0 01.33.87zm12.88-4.12a5.625 5.625 0 01-.73 2.89 5.24 5.24 0 01-1.96 1.95 5.461 5.461 0 01-2.75.7 5.461 5.461 0 01-2.75-.7 5.24 5.24 0 01-1.96-1.95 5.625 5.625 0 01-.73-2.89 5.625 5.625 0 01.73-2.89 5.316 5.316 0 011.96-1.96 5.4 5.4 0 012.75-.71 5.4 5.4 0 012.75.71 5.316 5.316 0 011.96 1.96 5.625 5.625 0 01.73 2.89zm-2.4 0a3.635 3.635 0 00-.41-1.77 3.052 3.052 0 00-1.1-1.17 2.885 2.885 0 00-1.53-.42 2.885 2.885 0 00-1.53.42 3.052 3.052 0 00-1.1 1.17 3.635 3.635 0 00-.41 1.77 3.592 3.592 0 00.41 1.75 3.052 3.052 0 001.1 1.17 2.885 2.885 0 001.53.42 2.885 2.885 0 001.53-.42 3.052 3.052 0 001.1-1.17 3.592 3.592 0 00.41-1.75zm7 4.12a1.181 1.181 0 01-.35.87 1.181 1.181 0 01-.87.35 1.125 1.125 0 01-.84-.35 1.2 1.2 0 01-.34-.87V2.44a1.181 1.181 0 01.35-.87 1.181 1.181 0 01.87-.35 1.116 1.116 0 01.85.35 1.219 1.219 0 01.33.87zm5.4 0a1.181 1.181 0 01-.35.87 1.181 1.181 0 01-.87.35 1.125 1.125 0 01-.84-.35 1.2 1.2 0 01-.34-.87V2.44a1.181 1.181 0 01.35-.87 1.181 1.181 0 01.87-.35 1.116 1.116 0 01.85.35 1.219 1.219 0 01.33.87zm5.06 0a1.2 1.2 0 01-.34.87 1.148 1.148 0 01-.86.35 1.148 1.148 0 01-.86-.35 1.2 1.2 0 01-.34-.87V6.54a1.2 1.2 0 01.34-.87 1.148 1.148 0 01.86-.35 1.148 1.148 0 01.86.35 1.2 1.2 0 01.34.87zM98.2 4.02a1.589 1.589 0 01-.96-.22.94.94 0 01-.28-.78v-.38a.889.889 0 01.31-.79 1.714 1.714 0 01.95-.21 1.632 1.632 0 01.98.22.94.94 0 01.28.78v.38a.9.9 0 01-.3.79 1.753 1.753 0 01-.98.21zm9.22 1.1a4.558 4.558 0 012.51.71 5.039 5.039 0 011.76 1.95 6.116 6.116 0 01.65 2.88 6.176 6.176 0 01-.65 2.89 5.079 5.079 0 01-1.74 1.96 4.391 4.391 0 01-2.45.71 4.274 4.274 0 01-1.5-.26 4.8 4.8 0 01-1.23-.66 3.782 3.782 0 01-.82-.81 1.288 1.288 0 01-.29-.69l.62-.26v5.26a1.2 1.2 0 01-.34.87 1.148 1.148 0 01-.86.35 1.166 1.166 0 01-.86-.34 1.191 1.191 0 01-.34-.88V6.54a1.2 1.2 0 01.34-.87 1.148 1.148 0 01.86-.35 1.148 1.148 0 01.86.35 1.2 1.2 0 01.34.87v.98l-.34-.18a1.126 1.126 0 01.28-.63 4.031 4.031 0 01.76-.74 4.328 4.328 0 011.11-.61 3.7 3.7 0 011.33-.24zm-.3 2.2a2.711 2.711 0 00-1.54.44 2.986 2.986 0 00-1.03 1.19 3.815 3.815 0 00-.37 1.71 3.9 3.9 0 00.37 1.71 2.957 2.957 0 001.03 1.21 2.711 2.711 0 001.54.44 2.664 2.664 0 001.53-.44 2.986 2.986 0 001.02-1.21 3.9 3.9 0 00.37-1.71 3.815 3.815 0 00-.37-1.71 3.015 3.015 0 00-1.02-1.19 2.664 2.664 0 00-1.53-.44zm17.5 3.36a5.625 5.625 0 01-.73 2.89 5.24 5.24 0 01-1.96 1.95 5.461 5.461 0 01-2.75.7 5.461 5.461 0 01-2.75-.7 5.24 5.24 0 01-1.96-1.95 5.625 5.625 0 01-.73-2.89 5.625 5.625 0 01.73-2.89 5.316 5.316 0 011.96-1.96 5.4 5.4 0 012.75-.71 5.4 5.4 0 012.75.71 5.316 5.316 0 011.96 1.96 5.625 5.625 0 01.73 2.89zm-2.4 0a3.635 3.635 0 00-.41-1.77 3.052 3.052 0 00-1.1-1.17 2.885 2.885 0 00-1.53-.42 2.885 2.885 0 00-1.53.42 3.052 3.052 0 00-1.1 1.17 3.635 3.635 0 00-.41 1.77 3.592 3.592 0 00.41 1.75 3.052 3.052 0 001.1 1.17 2.885 2.885 0 001.53.42 2.885 2.885 0 001.53-.42 3.052 3.052 0 001.1-1.17 3.592 3.592 0 00.41-1.75zm9.94-5.56a4.558 4.558 0 012.51.71 5.039 5.039 0 011.76 1.95 6.116 6.116 0 01.65 2.88 6.176 6.176 0 01-.65 2.89 5.079 5.079 0 01-1.74 1.96 4.391 4.391 0 01-2.45.71 4.274 4.274 0 01-1.5-.26 4.8 4.8 0 01-1.23-.66 3.782 3.782 0 01-.82-.81 1.288 1.288 0 01-.29-.69l.62-.26v5.26a1.2 1.2 0 01-.34.87 1.148 1.148 0 01-.86.35 1.166 1.166 0 01-.86-.34 1.191 1.191 0 01-.34-.88V6.54a1.2 1.2 0 01.34-.87 1.148 1.148 0 01.86-.35 1.148 1.148 0 01.86.35 1.2 1.2 0 01.34.87v.98l-.34-.18a1.126 1.126 0 01.28-.63 4.032 4.032 0 01.76-.74 4.328 4.328 0 011.11-.61 3.7 3.7 0 011.33-.24zm-.3 2.2a2.711 2.711 0 00-1.54.44 2.986 2.986 0 00-1.03 1.19 3.815 3.815 0 00-.37 1.71 3.9 3.9 0 00.37 1.71 2.957 2.957 0 001.03 1.21 2.711 2.711 0 001.54.44 2.664 2.664 0 001.53-.44 2.986 2.986 0 001.02-1.21 3.9 3.9 0 00.37-1.71 3.815 3.815 0 00-.37-1.71 3.015 3.015 0 00-1.02-1.19 2.664 2.664 0 00-1.53-.44zm8.14 3.76a1.2 1.2 0 01-.87-.34 1.148 1.148 0 01-.35-.86 1.116 1.116 0 01.35-.85 1.219 1.219 0 01.87-.33h3.48a1.181 1.181 0 01.87.35 1.181 1.181 0 01.35.87 1.093 1.093 0 01-.35.83 1.219 1.219 0 01-.87.33zm17.28-.4a5.625 5.625 0 01-.73 2.89 5.24 5.24 0 01-1.96 1.95 5.461 5.461 0 01-2.75.7 5.461 5.461 0 01-2.75-.7 5.24 5.24 0 01-1.96-1.95 5.625 5.625 0 01-.73-2.89 5.625 5.625 0 01.73-2.89 5.316 5.316 0 011.96-1.96 5.4 5.4 0 012.75-.71 5.4 5.4 0 012.75.71 5.316 5.316 0 011.96 1.96 5.625 5.625 0 01.73 2.89zm-2.4 0a3.635 3.635 0 00-.41-1.77 3.052 3.052 0 00-1.1-1.17 2.885 2.885 0 00-1.53-.42 2.885 2.885 0 00-1.53.42 3.052 3.052 0 00-1.1 1.17 3.635 3.635 0 00-.41 1.77 3.592 3.592 0 00.41 1.75 3.052 3.052 0 001.1 1.17 2.885 2.885 0 001.53.42 2.885 2.885 0 001.53-.42 3.052 3.052 0 001.1-1.17 3.592 3.592 0 00.41-1.75zM165 5.12a3.521 3.521 0 012.25.62 3.151 3.151 0 011.06 1.65 8.44 8.44 0 01.29 2.29v5.12a1.2 1.2 0 01-.34.87 1.148 1.148 0 01-.86.35 1.148 1.148 0 01-.86-.35 1.2 1.2 0 01-.34-.87V9.68a3.886 3.886 0 00-.17-1.19 1.644 1.644 0 00-.61-.85 2.119 2.119 0 00-1.26-.32 2.645 2.645 0 00-1.35.32 2.188 2.188 0 00-.84.85 2.438 2.438 0 00-.29 1.19v5.12a1.2 1.2 0 01-.34.87 1.148 1.148 0 01-.86.35 1.148 1.148 0 01-.86-.35 1.2 1.2 0 01-.34-.87V6.54a1.2 1.2 0 01.34-.87 1.148 1.148 0 01.86-.35 1.148 1.148 0 01.86.35 1.2 1.2 0 01.34.87v.86l-.3-.06a3.956 3.956 0 01.52-.73 4.989 4.989 0 01.8-.73 4.067 4.067 0 011.04-.55 3.675 3.675 0 011.26-.21zm8.8 9.68a1.181 1.181 0 01-.35.87 1.181 1.181 0 01-.87.35 1.125 1.125 0 01-.84-.35 1.2 1.2 0 01-.34-.87V2.44a1.181 1.181 0 01.35-.87 1.181 1.181 0 01.87-.35 1.116 1.116 0 01.85.35 1.219 1.219 0 01.33.87zm3.18 3.9a1.15 1.15 0 01-.7-.28.872.872 0 01-.36-.72 1.065 1.065 0 01.12-.48L184.16.6a1.115 1.115 0 01.38-.44.889.889 0 01.5-.16 1.133 1.133 0 01.69.27.874.874 0 01.35.73 1.065 1.065 0 01-.12.48l-8.1 16.62a1.148 1.148 0 01-.37.44.873.873 0 01-.51.16z" fill="rgba(255,255,255,0.8)"/><path d="M58.216 46.02h2.336l8.64-16.064h-2.656L59.88 42.692l-2.112-12.736H55.24zm14.656-16.064l-1.536 8.7a21.4 21.4 0 00-.352 3.364c0 2.72 1.76 4.288 4.832 4.288a5.253 5.253 0 004.672-2.048v1.76h1.792l2.848-16.064h-2.56l-1.44 8.164c-.736 4.288-2.08 5.952-4.7 5.952-1.856 0-2.816-1.024-2.816-3.008a12.974 12.974 0 01.256-2.3l1.568-8.8zM91.3 38.5h10.532a18.108 18.108 0 00.416-3.552c0-3.52-1.952-5.312-5.792-5.312-4.32 0-6.56 2.208-7.424 7.3l-.256 1.376A17.554 17.554 0 0088.52 41c0 3.52 2.08 5.308 6.144 5.308 2.656 0 4.288-.64 5.728-2.272l-1.664-1.376a4.762 4.762 0 01-3.84 1.568c-2.528 0-3.84-1.216-3.84-3.552a7.85 7.85 0 01.128-1.472zm.32-1.92l.032-.224c.544-3.072 2.272-4.768 4.9-4.768 2.208 0 3.328 1.12 3.328 3.392a6.466 6.466 0 01-.16 1.6zm18.212 1.152l-6.752 8.288h2.976l4.8-6.112 2.72 6.112h2.688l-3.616-8.064 6.528-8h-2.944l-4.64 5.856L109 29.956h-2.656zm11.648-2.212h8.992l.384-2.24h-8.992zm15.744-3.456l-1.472 8.256a16.077 16.077 0 00-.288 2.656c0 2.244 1.184 3.044 4.636 3.044h.448l.384-2.144h-.544c-1.76 0-2.336-.416-2.336-1.7a7.931 7.931 0 01.16-1.472l1.536-8.64h3.172l.352-2.112h-3.136l.9-5.152h-2.372l-1.024 5.156h-2.016l-.352 2.112zm12.16 13.924l-1.248 2.368c-1.344 2.5-1.984 2.88-4.384 2.88l-.384 2.144c4.16-.032 5.152-.7 7.328-4.768l9.632-18.656h-2.656l-6.528 13.184-2.368-13.184h-2.5zm10.528 7.232h2.528l1.536-8.7a5.426 5.426 0 004.48 1.792c3.968 0 6.016-2.016 6.848-6.752l.416-2.44a16.429 16.429 0 00.256-2.592c0-3.3-1.76-4.9-5.376-4.9a5.691 5.691 0 00-4.544 1.728l-.032-1.408h-2.016zm12.928-14.176c-.608 3.52-2.112 5.152-4.7 5.152-2.24 0-3.392-1.12-3.392-3.3a10.775 10.775 0 01.16-1.6l.48-2.624c.576-3.328 2.112-4.928 4.736-4.928 2.176 0 3.264 1.088 3.264 3.328a12.112 12.112 0 01-.16 1.856zm9.792-.544h10.528a18.108 18.108 0 00.416-3.552c0-3.52-1.952-5.312-5.792-5.312-4.32 0-6.56 2.208-7.424 7.3l-.26 1.372a17.555 17.555 0 00-.256 2.688c0 3.52 2.08 5.312 6.144 5.312 2.656 0 4.288-.64 5.728-2.272l-1.66-1.376a4.762 4.762 0 01-3.84 1.568c-2.528 0-3.84-1.216-3.84-3.552a7.851 7.851 0 01.128-1.472zm.32-1.92l.032-.224c.544-3.072 2.272-4.768 4.9-4.768 2.208 0 3.328 1.12 3.328 3.392a6.467 6.467 0 01-.16 1.6zm12.256 7.232c.928 1.632 3.072 2.5 6.24 2.5 4.576 0 6.944-1.888 6.944-5.536 0-2.56-1.184-3.488-5.088-4.032-2.5-.352-3.136-.768-3.136-2.048 0-1.824 1.344-3.008 3.456-3.008a4.1 4.1 0 013.648 1.664l2.016-1.152a3.9 3.9 0 00-1.248-1.408 8.466 8.466 0 00-4.512-1.152 5.938 5.938 0 00-4.288 1.44 5.519 5.519 0 00-1.568 3.872 3.531 3.531 0 001.088 2.688 6.42 6.42 0 003.488 1.18c2.048.32 2.272.352 2.848.7a1.594 1.594 0 01.8 1.472c0 2.048-1.6 3.232-4.384 3.232-2.048 0-3.3-.48-4.256-1.6zm27.456-7.232h-4.224c-2.688 0-4.352.512-5.344 1.6a7.015 7.015 0 00-1.44 4.544c0 2.5 1.6 3.584 5.312 3.584 2.176 0 3.36-.288 4.416-1.056l.128.768h2.016l1.728-9.824a12.756 12.756 0 00.32-2.528c0-2.624-1.888-4.032-5.344-4.032a7.439 7.439 0 00-5.888 2.432l1.536 1.312a5.75 5.75 0 014.128-1.632c1.952 0 3.008.8 3.008 2.368a6.625 6.625 0 01-.16 1.344zm-.32 1.92l-.48 2.528a3.609 3.609 0 01-.8 2.176c-.7.768-1.792 1.088-3.552 1.088-2.432 0-3.36-.512-3.36-1.92a4.132 4.132 0 01.96-2.848c.7-.7 1.824-1.024 3.584-1.024zm9.92-6.432L229.8 46.02h2.528l2.464-13.952h3.648l.352-2.112h-3.616l.416-2.4c.384-2.016.928-2.5 2.944-2.464h.928l.32-1.92h-1.664c-3.328-.064-4.48.832-4.992 3.936l-.48 2.848h-2.016l-.352 2.112zm10.624 6.432h10.528a18.108 18.108 0 00.416-3.552c0-3.52-1.952-5.312-5.792-5.312-4.32 0-6.56 2.208-7.424 7.3l-.256 1.376a17.554 17.554 0 00-.256 2.688c0 3.52 2.08 5.312 6.144 5.312 2.656 0 4.288-.64 5.728-2.272l-1.664-1.38a4.762 4.762 0 01-3.84 1.568c-2.528 0-3.84-1.216-3.84-3.552a7.851 7.851 0 01.128-1.472zm.32-1.92l.032-.224c.544-3.072 2.272-4.768 4.9-4.768 2.208 0 3.328 1.12 3.328 3.392a6.467 6.467 0 01-.16 1.6zm16-1.056h8.992l.384-2.24h-8.992zM272.3 46.02h2.528l1.472-8.352c.736-4.1 2.144-5.792 4.9-5.792 1.952 0 2.944 1.056 2.944 3.072a11.154 11.154 0 01-.192 1.952l-1.608 9.12h2.528l1.6-8.992a21.3 21.3 0 00.32-3.072c0-2.688-1.888-4.32-5.024-4.32a5.642 5.642 0 00-4.32 1.568l1.408-8.032h-2.528zm21.44-7.52h10.528a18.108 18.108 0 00.416-3.552c0-3.52-1.952-5.312-5.792-5.312-4.32 0-6.56 2.208-7.424 7.3l-.256 1.376a17.554 17.554 0 00-.256 2.688c0 3.52 2.08 5.312 6.144 5.312 2.656 0 4.288-.64 5.728-2.272l-1.668-1.38a4.762 4.762 0 01-3.84 1.568c-2.528 0-3.84-1.216-3.84-3.552a7.851 7.851 0 01.128-1.472zm.32-1.92l.032-.224c.544-3.072 2.272-4.768 4.9-4.768 2.208 0 3.328 1.12 3.328 3.392a6.467 6.467 0 01-.16 1.6zm17.216-13.408l-3.044 17.148a13.121 13.121 0 00-.288 2.592c0 2.3 1.184 3.1 4.544 3.1h.832l.384-2.144H313c-1.856 0-2.464-.416-2.464-1.76a7.388 7.388 0 01.16-1.376l3.1-17.568zm4.06 30.048h2.528l1.536-8.7a5.426 5.426 0 004.48 1.788c3.968 0 6.016-2.016 6.848-6.752l.416-2.432a16.428 16.428 0 00.256-2.592c0-3.3-1.76-4.9-5.376-4.9a5.691 5.691 0 00-4.544 1.728l-.032-1.408h-2.016zm12.928-14.176c-.608 3.52-2.112 5.152-4.7 5.152-2.24 0-3.392-1.12-3.392-3.3a10.774 10.774 0 01.16-1.6l.48-2.624c.576-3.328 2.112-4.928 4.736-4.928 2.176 0 3.264 1.088 3.264 3.328a12.111 12.111 0 01-.16 1.856zm9.792-.544h10.528a18.107 18.107 0 00.416-3.552c0-3.52-1.952-5.312-5.792-5.312-4.32 0-6.56 2.208-7.424 7.3l-.256 1.376a17.554 17.554 0 00-.256 2.688c0 3.52 2.08 5.312 6.144 5.312 2.656 0 4.288-.64 5.728-2.272l-1.664-1.38a4.762 4.762 0 01-3.84 1.568c-2.528 0-3.84-1.216-3.84-3.552a7.85 7.85 0 01.128-1.472zm.32-1.92l.032-.224c.544-3.072 2.272-4.768 4.9-4.768 2.208 0 3.328 1.12 3.328 3.392a6.465 6.465 0 01-.16 1.6zm13.696 9.44h2.528l1.408-7.84c.768-4.448 2.08-6.336 4.448-6.336a3.244 3.244 0 012.112.8l1.44-2.176a5.7 5.7 0 00-3.008-.832 4.718 4.718 0 00-4.1 1.984v-1.664h-1.98z" fill="#fff"/></svg>